<svg xmlns="http://www.w3.org/2000/svg" width="476.842" height="398.063" viewBox="0 0 476.842 398.063">
  <g id="undraw_empty_cart_co35" transform="translate(0 0)">
    <path id="Path_1" data-name="Path 1" d="M190,765.116c6.614,12.266,20.652,17.532,20.652,17.532s3.314-14.622-3.3-26.889S186.7,738.228,186.7,738.228,183.389,752.85,190,765.116Z" transform="translate(-167.846 -385.804)" fill="#2f2e41"/>
    <path id="Path_2" data-name="Path 2" d="M178.7,776.748c11.941,7.184,16.541,21.455,16.541,21.455s-14.762,2.622-26.7-4.562S152,772.186,152,772.186,166.762,769.564,178.7,776.748Z" transform="translate(-152 -401.472)" fill="#4da238"/>
    <rect id="Rectangle_1" data-name="Rectangle 1" width="74.507" height="1.064" transform="translate(219.927 19.11)" fill="#f2f2f2"/>
    <rect id="Rectangle_2" data-name="Rectangle 2" width="1.064" height="9.846" transform="translate(273.145 19.908)" fill="#f2f2f2"/>
    <rect id="Rectangle_3" data-name="Rectangle 3" width="1.064" height="9.846" transform="translate(240.682 19.908)" fill="#f2f2f2"/>
    <rect id="Rectangle_4" data-name="Rectangle 4" width="74.507" height="1.064" transform="translate(257.712 70.2)" fill="#f2f2f2"/>
    <rect id="Rectangle_5" data-name="Rectangle 5" width="1.064" height="9.846" transform="translate(277.935 60.621)" fill="#f2f2f2"/>
    <rect id="Rectangle_6" data-name="Rectangle 6" width="1.064" height="9.846" transform="translate(310.399 60.621)" fill="#f2f2f2"/>
    <rect id="Rectangle_7" data-name="Rectangle 7" width="74.507" height="1.064" transform="translate(356.699 94.149)" fill="#f2f2f2"/>
    <rect id="Rectangle_8" data-name="Rectangle 8" width="1.064" height="9.846" transform="translate(376.922 84.569)" fill="#f2f2f2"/>
    <rect id="Rectangle_9" data-name="Rectangle 9" width="1.064" height="9.846" transform="translate(409.386 84.569)" fill="#f2f2f2"/>
    <rect id="Rectangle_10" data-name="Rectangle 10" width="74.507" height="1.064" transform="translate(349.249 341.085)" fill="#f2f2f2"/>
    <rect id="Rectangle_11" data-name="Rectangle 11" width="1.064" height="9.846" transform="translate(369.472 331.505)" fill="#f2f2f2"/>
    <rect id="Rectangle_12" data-name="Rectangle 12" width="1.064" height="9.846" transform="translate(401.935 331.505)" fill="#f2f2f2"/>
    <rect id="Rectangle_13" data-name="Rectangle 13" width="74.507" height="1.064" transform="translate(222.056 170.252)" fill="#f2f2f2"/>
    <rect id="Rectangle_14" data-name="Rectangle 14" width="1.064" height="9.846" transform="translate(242.279 160.672)" fill="#f2f2f2"/>
    <rect id="Rectangle_15" data-name="Rectangle 15" width="1.064" height="9.846" transform="translate(274.742 160.672)" fill="#f2f2f2"/>
    <rect id="Rectangle_16" data-name="Rectangle 16" width="74.507" height="1.064" transform="translate(245.472 298.51)" fill="#f2f2f2"/>
    <rect id="Rectangle_17" data-name="Rectangle 17" width="1.064" height="9.846" transform="translate(265.695 288.93)" fill="#f2f2f2"/>
    <rect id="Rectangle_18" data-name="Rectangle 18" width="1.064" height="9.846" transform="translate(298.158 288.93)" fill="#f2f2f2"/>
    <rect id="Rectangle_19" data-name="Rectangle 19" width="74.507" height="1.064" transform="translate(364.682 259.66)" fill="#f2f2f2"/>
    <rect id="Rectangle_20" data-name="Rectangle 20" width="1.064" height="9.846" transform="translate(384.905 250.08)" fill="#f2f2f2"/>
    <rect id="Rectangle_21" data-name="Rectangle 21" width="1.064" height="9.846" transform="translate(417.369 250.08)" fill="#f2f2f2"/>
    <path id="Path_3" data-name="Path 3" d="M251.289,652.2H125.274V651.3H250.382v-43.97H135.868L130.3,595.739l.817-.392,5.316,11.075H251.289Z" transform="translate(-58.604 -278.509)" fill="#2f2e41"/>
    <circle id="Ellipse_1" data-name="Ellipse 1" cx="9.519" cy="9.519" r="9.519" transform="translate(73.922 376.868)" fill="#3f3d56"/>
    <circle id="Ellipse_2" data-name="Ellipse 2" cx="9.519" cy="9.519" r="9.519" transform="translate(167.754 376.868)" fill="#3f3d56"/>
    <circle id="Ellipse_3" data-name="Ellipse 3" cx="5.893" cy="5.893" r="5.893" transform="translate(281.983 178.326)" fill="#3f3d56"/>
    <path id="Path_4" data-name="Path 4" d="M387.938,577.708H246.3L215.648,477.531H419.5l-.185.589ZM246.967,576.8H387.273l30.992-98.365H216.874Z" transform="translate(-181.775 -263.848)" fill="#2f2e41"/>
    <path id="Path_5" data-name="Path 5" d="M233.588,501.86H109.179L82.26,413.015H261.31l-.163.523Z" transform="translate(-38.482 -193.213)" fill="#f2f2f2"/>
    <path id="Path_6" data-name="Path 6" d="M450.695,364.675l-.877-.233,5.982-22.548h34.8v.907H456.5Z" transform="translate(-210.429 -159.941)" fill="#2f2e41"/>
    <rect id="Rectangle_22" data-name="Rectangle 22" width="183.761" height="0.907" transform="translate(43.777 244.054)" fill="#2f2e41"/>
    <rect id="Rectangle_23" data-name="Rectangle 23" width="163.02" height="0.907" transform="translate(53.995 277.454)" fill="#2f2e41"/>
    <rect id="Rectangle_24" data-name="Rectangle 24" width="0.907" height="99.271" transform="translate(135.343 214.136)" fill="#2f2e41"/>
    <rect id="Rectangle_25" data-name="Rectangle 25" width="99.482" height="0.907" transform="matrix(0.065, -0.998, 0.998, 0.065, 170.332, 313.377)" fill="#2f2e41"/>
    <rect id="Rectangle_26" data-name="Rectangle 26" width="0.907" height="99.482" transform="translate(93.868 214.165) rotate(-3.729)" fill="#2f2e41"/>
    <rect id="Rectangle_27" data-name="Rectangle 27" width="476.842" height="1.064" transform="translate(0 396.481)" fill="#2f2e41"/>
    <path id="Path_7" data-name="Path 7" d="M747.411,136.559s7.78,22.142,2.992,25.549,16.158,31.227,16.158,31.227l25.135-6.813-13.764-23.278s-1.8-23.278-1.8-26.684S747.411,136.559,747.411,136.559Z" transform="translate(-430.539 -103.63)" fill="#a0616a"/>
    <path id="Path_8" data-name="Path 8" d="M747.411,136.559s7.78,22.142,2.992,25.549,16.158,31.227,16.158,31.227l25.135-6.813-13.764-23.278s-1.8-23.278-1.8-26.684S747.411,136.559,747.411,136.559Z" transform="translate(-430.539 -103.63)" opacity="0.1"/>
    <path id="Path_9" data-name="Path 9" d="M721.987,419.747s-2.271,28.388,0,43.149,5.677,55.64,5.677,55.64,0,77.215,12.491,78.35,21.575,2.271,22.71-2.271-5.678-6.813-2.271-9.084,4.542-10.22,0-19.3,0-101.06,0-101.06l21.575,57.911s2.271,47.691,4.542,54.5-2.271,19.3,5.677,20.439,17.033-5.677,21.575-7.949-6.813-2.271-4.542-3.406,9.084-4.542,6.813-5.678-4.542-55.64-4.542-55.64S805.446,408.96,797.5,404.418,784.44,407.7,784.44,407.7Z" transform="translate(-418.173 -228.981)" fill="#333"/>
    <path id="Path_10" data-name="Path 10" d="M757.286,758.784v9.084s-10.22,24.693,0,24.693,18.168,2.559,18.168-.848V761.055Z" transform="translate(-433.034 -395.421)" fill="#2f2e41"/>
    <path id="Path_11" data-name="Path 11" d="M871.195,758.754v9.084s10.22,24.693,0,24.693-18.168,2.559-18.168-.848V761.025Z" transform="translate(-479.947 -395.407)" fill="#2f2e41"/>
    <circle id="Ellipse_4" data-name="Ellipse 4" cx="20.439" cy="20.439" r="20.439" transform="translate(312.33 8.516)" fill="#a0616a"/>
    <path id="Path_12" data-name="Path 12" d="M763.551,201.9s5.678,17.033,14.762,13.626l9.084-3.407,15.9,109.009S790.8,339.3,772.635,327.942,763.551,201.9,763.551,201.9Z" transform="translate(-437.027 -134.905)" fill="#069da2"/>
    <path id="Path_13" data-name="Path 13" d="M795.418,186.017l5.11-10.787s30.091,14.194,34.633,18.736S839.7,205.32,839.7,205.32l-7.949,28.388s2.271,62.453,2.271,64.724,7.949,14.762,2.271,10.22-6.813-9.084-11.355-2.271-14.762,14.762-14.762,14.762Z" transform="translate(-452.997 -122.428)" fill="#5b5b5d"/>
    <path id="Path_14" data-name="Path 14" d="M852.549,349.122l-3.407,31.794s-20.439,18.168-15.9,19.3,6.813-3.407,6.813-3.407,7.949,7.949,12.491,3.407,15.9-47.691,15.9-47.691Z" transform="translate(-470.385 -203.777)" fill="#a0616a"/>
    <path id="Path_15" data-name="Path 15" d="M757.256,76.083c-4.531-.162-9.38-.242-13.2,2.2a19.324,19.324,0,0,0-4.562,4.466c-3.721,4.7-6.936,10.622-5.554,16.458l1.605-.626a10.512,10.512,0,0,1-1.014,4.5c.226-.657.983.406.78,1.07l-1.768,5.8a5.462,5.462,0,0,1,6.965,4.156c.2-6.738.9-14.465,6.367-18.41,2.756-1.99,6.245-2.6,9.6-3.136,3.1-.5,6.342-.972,9.308.047s5.492,4.053,4.819,7.116a3.17,3.17,0,0,1,3.573,1.761,9.249,9.249,0,0,1,.732,4.234c1.458,1.03,3.117-1.016,3.711-2.7,1.395-3.951,2.634-8.157,1.883-12.279s-4.11-8.061-8.3-8.075a2.91,2.91,0,0,0,.757-2.048l-3.454-.292a3.817,3.817,0,0,0,2.281-1.2C770.4,80.653,759.5,76.164,757.256,76.083Z" transform="translate(-424.052 -76.014)" fill="#2f2e41"/>
    <path id="Path_16" data-name="Path 16" d="M735.261,181.6s-9.244-9.058-12.57-8.5-7.869,8.5-7.869,8.5-27.252,9.084-26.117,18.168,13.626,53.369,13.626,53.369,10.22,53.369,1.135,59.046,43.149,20.439,44.285,13.626,3.406-74.944,0-85.163S735.261,181.6,735.261,181.6Z" transform="translate(-403.06 -121.42)" fill="#5b5b5d"/>
    <path id="Path_17" data-name="Path 17" d="M850.893,223.236h14.041s9.805,43.149,10.94,47.692,3.406,26.117,2.271,26.117S854.3,292.5,854.3,295.909Z" transform="translate(-478.949 -144.886)" fill="#5b5b5d"/>
    <path id="Path_18" data-name="Path 18" d="M799.147,362.731H745.4c-5.245-24.129-5.684-47.443,0-69.717h53.751C790.473,314.888,789.931,338.041,799.147,362.731Z" transform="translate(-427.679 -177.529)" fill="#f2f2f2"/>
    <path id="Path_19" data-name="Path 19" d="M707.938,359.464l15.9,6.813s30.659,4.542,30.659-7.949-30.659-5.678-30.659-5.678l-10.22-3.268Z" transform="translate(-412.073 -203.899)" fill="#a0616a"/>
    <path id="Path_20" data-name="Path 20" d="M692.487,210.435l-13.626,3.407-10.22,60.182s-3.407,15.9,2.271,17.033,21.575,10.22,21.575,10.22,2.271-17.033,6.813-17.033l-11.355-9.084,6.813-39.743Z" transform="translate(-393.216 -138.898)" fill="#5b5b5d"/>
    <rect id="Rectangle_28" data-name="Rectangle 28" width="74.507" height="1.064" transform="translate(32.064 187.814)" fill="#f2f2f2"/>
    <rect id="Rectangle_29" data-name="Rectangle 29" width="1.064" height="9.846" transform="translate(52.287 178.235)" fill="#f2f2f2"/>
    <rect id="Rectangle_30" data-name="Rectangle 30" width="1.064" height="9.846" transform="translate(84.751 178.235)" fill="#f2f2f2"/>
    <rect id="Rectangle_31" data-name="Rectangle 31" width="74.507" height="1.064" transform="translate(58.141 30.286)" fill="#f2f2f2"/>
    <rect id="Rectangle_32" data-name="Rectangle 32" width="1.064" height="9.846" transform="translate(111.36 31.084)" fill="#f2f2f2"/>
    <rect id="Rectangle_33" data-name="Rectangle 33" width="1.064" height="9.846" transform="translate(78.897 31.084)" fill="#f2f2f2"/>
    <rect id="Rectangle_34" data-name="Rectangle 34" width="74.507" height="1.064" transform="translate(133.18 135.127)" fill="#f2f2f2"/>
    <rect id="Rectangle_35" data-name="Rectangle 35" width="1.064" height="9.846" transform="translate(186.399 135.926)" fill="#f2f2f2"/>
    <rect id="Rectangle_36" data-name="Rectangle 36" width="1.064" height="9.846" transform="translate(153.935 135.926)" fill="#f2f2f2"/>
    <rect id="Rectangle_37" data-name="Rectangle 37" width="74.507" height="1.064" transform="translate(6.519 134.595)" fill="#f2f2f2"/>
    <rect id="Rectangle_38" data-name="Rectangle 38" width="1.064" height="9.846" transform="translate(59.737 135.393)" fill="#f2f2f2"/>
    <rect id="Rectangle_39" data-name="Rectangle 39" width="1.064" height="9.846" transform="translate(27.274 135.393)" fill="#f2f2f2"/>
    <rect id="Rectangle_40" data-name="Rectangle 40" width="74.507" height="1.064" transform="translate(95.927 81.376)" fill="#f2f2f2"/>
    <rect id="Rectangle_41" data-name="Rectangle 41" width="1.064" height="9.846" transform="translate(116.15 71.797)" fill="#f2f2f2"/>
    <rect id="Rectangle_42" data-name="Rectangle 42" width="1.064" height="9.846" transform="translate(148.613 71.797)" fill="#f2f2f2"/>
  </g>
</svg>
